#water.obj

v 0.01950074 -0.04897522 1.405402E-07
v 9.231909E-08 -2.405325 3.828709E-07
v 2.983137E-07 -0.0514386 1.795114E-07
v 0.6048884 -2.32891 3.150791E-07
v 3.02133E-06 -4.367424 5.529275E-07
v 0.03777585 -0.0417395 1.01414E-07
v 1.092846 -4.229365 4.61112E-07
v -2.168113E-07 -5.937736 6.896819E-07
v 1.171769 -2.104466 2.424781E-07
v 0.05367746 -0.03018646 6.220267E-08
v 1.483363 -5.750344 5.786397E-07
v -3.19947E-07 -7.116261 7.931333E-07
v 1.665024 -1.746096 1.672411E-07
v 0.06620631 -0.0150415 2.298184E-08
v 2.117017 -3.823867 3.60608E-07
v 1.771041 -6.938229 6.650059E-07
v -3.887965E-07 -7.903 8.63282E-07
v 1.972104 -7.653864 7.281773E-07
v 2.039743 -1.274175 9.298601E-08
v 0.07457519 0.002743225 -1.617256E-08
v 3.008172 -3.176405 2.553418E-07
v 2.873518 -5.199943 4.558042E-07
v 3.475082 -6.545005 5.047927E-07
v 3.820292 -6.922116 5.773936E-07
v 2.225336 -0.732243 2.718749E-08
v 0.07825825 0.02205048 -5.518868E-08
v 3.695911 -2.330643 1.511595E-07
v 4.083127 -4.321111 3.265042E-07
v 5.009093 -5.573583 3.467973E-07
v 5.576876 -5.911798 3.598373E-07
v 2.344232 -0.1549713 -4.125421E-08
v 0.07702408 0.04166717 -9.400337E-08
v 4.096209 -1.370528 5.820537E-08
v 5.046669 -3.175746 1.953923E-07
v 6.1091 -4.269085 2.139191E-07
v 6.939656 -4.37707 1.686056E-07
v 2.377607 0.4747793 -1.122654E-07
v 0.07095022 0.06036041 -1.325662E-07
v 4.315063 -0.3079388 -3.581943E-08
v 5.761628 -1.845095 6.189584E-08
v 6.942106 -2.353849 6.915939E-08
v 7.816875 -2.512886 1.076387E-08
v 2.20081 1.062598 -1.690067E-07
v 0.0604183 0.07695618 -1.708425E-07
v 4.314402 0.7903348 -1.245447E-07
v 6.067475 -0.3547617 -5.625508E-08
v 7.514553 -1.001104 -8.020437E-08
v 8.078078 -0.4812588 -8.441275E-08
v 1.874118 1.577381 -2.152396E-07
v 0.04609013 0.09041107 -2.088154E-07
v 4.081191 1.656275 -1.837878E-07
v 5.921732 1.09904 -1.453679E-07
v 7.351108 1.372064 -2.077117E-07
v 7.908795 1.535657 -1.911083E-07
v 1.42967 1.994745 -2.520669E-07
v 0.02886594 0.09988037 -2.464876E-07
v 3.466427 2.727829 -2.46414E-07
v 5.751812 2.318362 -2.348703E-07
v 6.528302 3.098957 -2.515818E-07
v 7.46498 3.539731 -3.659518E-07
v 0.8953896 2.288468 -2.795629E-07
v 0.009828049 0.1047684 -2.838803E-07
v 2.489427 3.648229 -2.90318E-07
v 4.734262 3.715659 -2.796344E-07
v 5.624998 4.680377 -3.301201E-07
v 6.271074 5.214855 -3.823101E-07
v 0.3048491 2.440094 -2.983885E-07
v -0.009827411 0.1047684 -3.210323E-07
v 1.645071 4.101833 -3.062915E-07
v 3.378772 4.942426 -3.176573E-07
v 4.274882 5.910842 -3.593383E-07
v 4.7325 6.540698 -3.850788E-07
v -0.3048468 2.440094 -3.097491E-07
v -0.02886533 0.09988037 -3.579977E-07
v 0.899343 4.328361 -3.104554E-07
v 2.232893 5.557975 -3.275233E-07
v 2.636006 6.684762 -3.455637E-07
v 2.974103 7.538706 -3.975761E-07
v -0.8953885 2.288469 -3.153191E-07
v -0.0460895 0.09041107 -3.948421E-07
v -0.198623 4.416881 -3.043424E-07
v 1.220718 5.865435 -3.235772E-07
v 0.9319282 7.40392 -3.765383E-07
v 1.030789 8.186456 -4.285138E-07
v -1.429669 1.994745 -3.171371E-07
v -0.06041767 0.07695618 -4.316388E-07
v -1.565108 4.13321 -2.804489E-07
v -0.2695999 5.985589 -3.016967E-07
v -0.8952822 7.113883 -2.838973E-07
v -0.9009503 8.107605 -3.424697E-07
v -1.874117 1.577381 -3.174772E-07
v -0.0709496 0.06036041 -4.684642E-07
v -2.62933 3.541378 -2.49877E-07
v -2.124389 5.600549 -2.520277E-07
v -2.629599 6.668585 -2.266347E-07
v -2.977399 7.547025 -2.544107E-07
v -2.20081 1.062597 -3.187063E-07
v -0.07702346 0.04166717 -5.053927E-07
v -3.59116 2.501725 -2.102217E-07
v -3.505967 4.852527 -1.988925E-07
v -4.198686 5.805974 -1.583528E-07
v -4.859304 6.715235 -2.402895E-07
v -2.389216 0.482742 -3.231357E-07
v -0.07825764 0.02205048 -5.424924E-07
v -4.021757 1.78478 -1.903333E-07
v -4.595887 3.829025 -1.44523E-07
v -5.521581 4.726385 -1.02464E-07
v -6.457073 5.312723 -1.995247E-07
v -2.4275 -0.1257501 -3.328754E-07
v -0.07457458 0.002743225 -5.798208E-07
v -4.361374 0.5647006 -1.661768E-07
v -5.423404 2.509805 -9.028574E-08
v -6.631682 3.084906 -3.020517E-08
v -7.549278 3.273448 -3.114101E-08
v -2.313253 -0.7246472 -3.497019E-07
v -0.06620571 -0.0150415 -6.174204E-07
v -4.35808 -0.5368222 -1.561828E-07
v -5.919885 0.7568551 -3.833784E-08
v -7.458972 1.504404 -4.444664E-09
v -7.978614 1.340613 8.019462E-08
v -2.053658 -1.276317 -3.749461E-07
v -0.05367687 -0.03018646 -6.553171E-07
v -4.16483 -1.374786 -1.576461E-07
v -5.915416 -0.7382916 -1.118931E-08
v -7.284753 -0.4854153 7.844017E-08
v -8.098502 -0.6016211 1.228271E-07
v -1.665024 -1.746096 -4.094103E-07
v -0.03777529 -0.0417395 -6.935185E-07
v -3.722236 -2.298833 -1.717112E-07
v -5.653107 -1.875696 -2.582401E-09
v -6.993936 -2.244616 9.898198E-08
v -7.817458 -2.511612 1.238971E-07
v -1.171769 -2.104466 -4.533175E-07
v -0.01950013 -0.04897522 -7.320123E-07
v -3.122098 -3.018241 -1.975968E-07
v -5.054945 -3.131564 -8.894876E-09
v -6.648501 -3.474414 8.889943E-08
v -6.711989 -4.368268 1.79277E-07
v -0.6048878 -2.32891 -5.062971E-07
v 3.120238E-07 -0.0514386 -7.707681E-07
v 5.175957E-07 -2.405325 -5.674086E-07
v -2.266697 -3.699005 -2.432415E-07
v -4.251479 -4.11981 -3.166262E-08
v -4.889882 -5.180221 8.600389E-08
v -6.002983 -5.250403 1.730852E-07
v -1.121267 -4.216512 -3.156123E-07
v 6.889517E-07 -4.367424 -3.973518E-07
v -3.086646 -5.046831 -8.006889E-08
v -3.44128 -6.232691 3.067726E-08
v -4.418716 -6.768526 9.814255E-08
v -1.522727 -5.735849 -1.634898E-07
v 8.260917E-07 -5.937736 -2.605977E-07
v -1.776449 -6.891845 -5.129354E-08
v -2.129292 -7.738339 9.175419E-09
v 9.290159E-07 -7.116261 -1.571462E-07
v 9.977241E-07 -7.903 -8.699755E-08

vn 1.807236E-06 3.286263E-07 1
vn 1.052087E-07 0 1
vn 1.987565E-06 0 1
vn 0 1.013167E-07 1
vn 0 0 1
vn 1.680981E-06 7.582486E-07 1
vn 0 0 1
vn 0 0 1
vn 0 1.117718E-07 1
vn 1.451842E-06 1.142968E-06 1
vn 0 0 1
vn 0 0 1
vn 0 1.1745E-07 1
vn 1.136739E-06 1.458779E-06 1
vn 0 0 1
vn 0 0 1
vn 0 0 1
vn 0 1.13713E-07 1
vn 0 1.158471E-07 1
vn 7.640644E-07 1.688468E-06 1
vn 0 0 1
vn 0 0 1
vn 0 1.295634E-07 1
vn 0 1.813045E-07 1
vn 0 1.149342E-07 1
vn 3.391581E-07 1.808225E-06 1
vn 0 0 1
vn 0 0 1
vn 0 0 1
vn 0 0 1
vn 0 1.14707E-07 1
vn -1.180952E-07 1.816602E-06 1
vn 0 0 1
vn 0 0 1
vn 0 0 1
vn 0 0 1
vn 0 1.018836E-07 1
vn -5.647568E-07 1.721955E-06 1
vn 0 0 1
vn 0 0 1
vn 0 0 1
vn 0 0 1
vn 0 0 1
vn -9.649646E-07 1.518088E-06 1
vn 0 0 1
vn 0 0 1
vn 0 0 1
vn 0 0 1
vn 0 0 1
vn -1.299932E-06 1.22092E-06 1
vn 0 0 1
vn 0 0 1
vn 0 0 1
vn 0 0 1
vn 0 0 1
vn -1.550479E-06 8.497837E-07 1
vn 0 0 1
vn 0 0 1
vn 0 0 1
vn 0 0 1
vn 0 0 1
vn -1.700862E-06 4.280022E-07 1
vn 0 0 1
vn 0 0 1
vn 0 0 1
vn 0 0 1
vn 0 0 1
vn -1.741621E-06 0 1
vn 0 0 1
vn 0 0 1
vn 0 0 1
vn 0 0 1
vn 0 0 1
vn -1.670197E-06 -4.599845E-07 1
vn 0 0 1
vn 0 0 1
vn 0 0 1
vn 0 0 1
vn 0 0 1
vn -1.49109E-06 -8.703951E-07 1
vn 0 0 1
vn 0 0 1
vn 0 0 1
vn 0 0 1
vn 0 0 1
vn -1.215544E-06 -1.223364E-06 1
vn 0 0 1
vn 0 0 1
vn 0 0 1
vn 0 0 1
vn 0 0 1
vn -8.608734E-07 -1.496726E-06 1
vn 0 0 1
vn 0 0 1
vn 0 0 1
vn 0 0 1
vn 0 0 1
vn -4.493655E-07 -1.673289E-06 1
vn 0 0 1
vn 0 0 1
vn 0 0 1
vn 0 0 1
vn 0 0 1
vn 0 -1.741967E-06 1
vn 0 0 1
vn 0 0 1
vn 0 0 1
vn 0 0 1
vn 0 0 1
vn 4.38798E-07 -1.698452E-06 1
vn 0 0 1
vn 0 0 1
vn 0 0 1
vn 0 0 1
vn 1.04954E-07 0 1
vn 8.596369E-07 -1.545453E-06 1
vn 0 0 1
vn 0 0 1
vn 0 0 1
vn 1.358397E-07 0 1
vn 1.138212E-07 0 1
vn 1.229219E-06 -1.292617E-06 1
vn 0 0 1
vn 0 0 1
vn 0 0 1
vn 0 0 1
vn 1.188285E-07 0 1
vn 1.524308E-06 -9.558148E-07 1
vn 0 0 1
vn 0 0 1
vn 0 0 1
vn 0 0 1
vn 1.192134E-07 0 1
vn 1.726361E-06 -5.562004E-07 1
vn 0 0 1
vn 0 0 1
vn 0 0 1
vn 0 0 1
vn 1.147175E-07 0 1
vn 1.657813E-06 -3.241842E-07 1
vn 1.064022E-07 0 1
vn 0 0 1
vn 0 0 1
vn 0 0 1
vn 0 0 1
vn 0 0 1
vn 0 0 1
vn 0 0 1
vn 0 0 1
vn 0 0 1
vn 0 0 1
vn 0 0 1
vn 0 0 1
vn 0 0 1
vn 0 0 1
vn 0 0 1

vt -0.01113728 0.02636078
vt 0.1925822 -0.01450533
vt -0.01113719 -0.01450533
vt 0.1925822 0.02636078
vt 0.3963014 -0.01450533
vt -0.01113728 0.06722698
vt 0.3963014 0.02636078
vt 0.6000209 -0.01450533
vt 0.1925822 0.06722698
vt -0.01113728 0.1080932
vt 0.6000208 0.02636078
vt 0.8037402 -0.01450533
vt 0.1925822 0.1080932
vt -0.01113728 0.1489594
vt 0.3963014 0.06722698
vt 0.8037401 0.02636084
vt 1.00746 -0.01450533
vt 1.00746 0.02636084
vt 0.1925822 0.1489594
vt -0.01113728 0.1898256
vt 0.3963014 0.1080932
vt 0.6000208 0.06722698
vt 0.8037401 0.06722704
vt 1.00746 0.06722704
vt 0.1925821 0.1898256
vt -0.01113728 0.2306918
vt 0.3963014 0.1489594
vt 0.6000208 0.1080932
vt 0.8037401 0.1080932
vt 1.00746 0.1080932
vt 0.1925821 0.2306918
vt -0.01113728 0.271558
vt 0.3963014 0.1898256
vt 0.6000208 0.1489594
vt 0.8037401 0.1489594
vt 1.00746 0.1489594
vt 0.1925821 0.271558
vt -0.01113728 0.3124242
vt 0.3963014 0.2306918
vt 0.6000208 0.1898256
vt 0.8037401 0.1898256
vt 1.00746 0.1898256
vt 0.1925821 0.3124242
vt -0.01113728 0.3532904
vt 0.3963014 0.271558
vt 0.6000208 0.2306918
vt 0.8037401 0.2306918
vt 1.00746 0.2306918
vt 0.1925821 0.3532904
vt -0.01113728 0.3941566
vt 0.3963014 0.3124242
vt 0.6000208 0.271558
vt 0.8037401 0.271558
vt 1.00746 0.271558
vt 0.1925821 0.3941566
vt -0.01113731 0.4350228
vt 0.3963014 0.3532904
vt 0.6000208 0.3124242
vt 0.8037401 0.3124242
vt 1.00746 0.3124242
vt 0.1925821 0.4350228
vt -0.01113731 0.475889
vt 0.3963014 0.3941566
vt 0.6000208 0.3532904
vt 0.8037401 0.3532904
vt 1.00746 0.3532904
vt 0.192582 0.475889
vt -0.01113731 0.5167551
vt 0.3963014 0.4350228
vt 0.6000208 0.3941566
vt 0.8037401 0.3941566
vt 1.00746 0.3941566
vt 0.192582 0.5167551
vt -0.01113731 0.5576213
vt 0.3963014 0.475889
vt 0.6000206 0.4350228
vt 0.8037401 0.4350228
vt 1.00746 0.4350228
vt 0.192582 0.5576213
vt -0.01113731 0.5984875
vt 0.3963014 0.5167552
vt 0.6000206 0.475889
vt 0.8037401 0.475889
vt 1.00746 0.475889
vt 0.192582 0.5984875
vt -0.01113731 0.6393536
vt 0.3963014 0.5576214
vt 0.6000206 0.5167552
vt 0.8037401 0.5167552
vt 1.00746 0.5167552
vt 0.192582 0.6393536
vt -0.01113731 0.6802198
vt 0.3963014 0.5984875
vt 0.6000206 0.5576214
vt 0.8037401 0.5576214
vt 1.00746 0.5576214
vt 0.192582 0.6802198
vt -0.01113731 0.721086
vt 0.3963014 0.6393536
vt 0.6000206 0.5984875
vt 0.8037401 0.5984875
vt 1.00746 0.5984875
vt 0.192582 0.721086
vt -0.01113731 0.7619522
vt 0.3963014 0.6802198
vt 0.6000206 0.6393536
vt 0.8037401 0.6393536
vt 1.007459 0.6393536
vt 0.192582 0.7619522
vt -0.01113731 0.8028184
vt 0.3963013 0.721086
vt 0.6000206 0.6802198
vt 0.8037401 0.6802198
vt 1.007459 0.6802198
vt 0.192582 0.8028184
vt -0.0111374 0.8436845
vt 0.3963013 0.7619522
vt 0.6000206 0.721086
vt 0.8037401 0.721086
vt 1.007459 0.721086
vt 0.192582 0.8436845
vt -0.0111374 0.8845506
vt 0.3963013 0.8028184
vt 0.6000206 0.7619522
vt 0.8037401 0.7619522
vt 1.007459 0.7619522
vt 0.192582 0.8845506
vt -0.0111374 0.9254168
vt 0.3963013 0.8436845
vt 0.6000206 0.8028184
vt 0.8037401 0.8028184
vt 1.007459 0.8028184
vt 0.192582 0.9254168
vt -0.0111374 0.966283
vt 0.3963013 0.8845506
vt 0.6000206 0.8436845
vt 0.8037401 0.8436845
vt 1.007459 0.8436845
vt 0.192582 0.966283
vt -0.0111374 1.007149
vt 0.192582 1.007149
vt 0.3963013 0.9254168
vt 0.6000206 0.8845506
vt 0.8037401 0.8845508
vt 1.007459 0.8845508
vt 0.3963013 0.966283
vt 0.3963013 1.007149
vt 0.6000206 0.9254168
vt 0.8037401 0.9254168
vt 1.007459 0.9254168
vt 0.6000206 0.966283
vt 0.6000206 1.007149
vt 0.8037401 0.966283
vt 1.007459 0.966283
vt 0.8037401 1.007149
vt 1.007459 1.007149

g water
usemtl water
usemap water
f 1/1/1 3/3/3 2/2/2
f 2/2/2 4/4/4 1/1/1
f 4/4/4 2/2/2 5/5/5
f 6/6/6 1/1/1 4/4/4
f 5/5/5 7/7/7 4/4/4
f 7/7/7 5/5/5 8/8/8
f 4/4/4 9/9/9 6/6/6
f 9/9/9 4/4/4 7/7/7
f 10/10/10 6/6/6 9/9/9
f 8/8/8 11/11/11 7/7/7
f 11/11/11 8/8/8 12/12/12
f 9/9/9 13/13/13 10/10/10
f 14/14/14 10/10/10 13/13/13
f 7/7/7 15/15/15 9/9/9
f 15/15/15 7/7/7 11/11/11
f 13/13/13 9/9/9 15/15/15
f 12/12/12 16/16/16 11/11/11
f 16/16/16 12/12/12 17/17/17
f 17/17/17 18/18/18 16/16/16
f 13/13/13 19/19/19 14/14/14
f 20/20/20 14/14/14 19/19/19
f 15/15/15 21/21/21 13/13/13
f 19/19/19 13/13/13 21/21/21
f 11/11/11 22/22/22 15/15/15
f 22/22/22 11/11/11 16/16/16
f 21/21/21 15/15/15 22/22/22
f 23/23/23 16/16/16 18/18/18
f 16/16/16 23/23/23 22/22/22
f 18/18/18 24/24/24 23/23/23
f 19/19/19 25/25/25 20/20/20
f 26/26/26 20/20/20 25/25/25
f 21/21/21 27/27/27 19/19/19
f 25/25/25 19/19/19 27/27/27
f 22/22/22 28/28/28 21/21/21
f 28/28/28 22/22/22 23/23/23
f 27/27/27 21/21/21 28/28/28
f 29/29/29 23/23/23 24/24/24
f 23/23/23 29/29/29 28/28/28
f 24/24/24 30/30/30 29/29/29
f 25/25/25 31/31/31 26/26/26
f 32/32/32 26/26/26 31/31/31
f 27/27/27 33/33/33 25/25/25
f 31/31/31 25/25/25 33/33/33
f 28/28/28 34/34/34 27/27/27
f 34/34/34 28/28/28 29/29/29
f 33/33/33 27/27/27 34/34/34
f 35/35/35 29/29/29 30/30/30
f 29/29/29 35/35/35 34/34/34
f 30/30/30 36/36/36 35/35/35
f 31/31/31 37/37/37 32/32/32
f 38/38/38 32/32/32 37/37/37
f 33/33/33 39/39/39 31/31/31
f 37/37/37 31/31/31 39/39/39
f 34/34/34 40/40/40 33/33/33
f 40/40/40 34/34/34 35/35/35
f 39/39/39 33/33/33 40/40/40
f 41/41/41 35/35/35 36/36/36
f 35/35/35 41/41/41 40/40/40
f 36/36/36 42/42/42 41/41/41
f 37/37/37 43/43/43 38/38/38
f 44/44/44 38/38/38 43/43/43
f 39/39/39 45/45/45 37/37/37
f 43/43/43 37/37/37 45/45/45
f 40/40/40 46/46/46 39/39/39
f 46/46/46 40/40/40 41/41/41
f 45/45/45 39/39/39 46/46/46
f 47/47/47 41/41/41 42/42/42
f 41/41/41 47/47/47 46/46/46
f 42/42/42 48/48/48 47/47/47
f 43/43/43 49/49/49 44/44/44
f 50/50/50 44/44/44 49/49/49
f 45/45/45 51/51/51 43/43/43
f 49/49/49 43/43/43 51/51/51
f 46/46/46 52/52/52 45/45/45
f 52/52/52 46/46/46 47/47/47
f 51/51/51 45/45/45 52/52/52
f 53/53/53 47/47/47 48/48/48
f 47/47/47 53/53/53 52/52/52
f 48/48/48 54/54/54 53/53/53
f 49/49/49 55/55/55 50/50/50
f 56/56/56 50/50/50 55/55/55
f 51/51/51 57/57/57 49/49/49
f 55/55/55 49/49/49 57/57/57
f 52/52/52 58/58/58 51/51/51
f 58/58/58 52/52/52 53/53/53
f 57/57/57 51/51/51 58/58/58
f 59/59/59 53/53/53 54/54/54
f 53/53/53 59/59/59 58/58/58
f 54/54/54 60/60/60 59/59/59
f 55/55/55 61/61/61 56/56/56
f 62/62/62 56/56/56 61/61/61
f 57/57/57 63/63/63 55/55/55
f 61/61/61 55/55/55 63/63/63
f 58/58/58 64/64/64 57/57/57
f 64/64/64 58/58/58 59/59/59
f 63/63/63 57/57/57 64/64/64
f 65/65/65 59/59/59 60/60/60
f 59/59/59 65/65/65 64/64/64
f 60/60/60 66/66/66 65/65/65
f 61/61/61 67/67/67 62/62/62
f 68/68/68 62/62/62 67/67/67
f 63/63/63 69/69/69 61/61/61
f 67/67/67 61/61/61 69/69/69
f 64/64/64 70/70/70 63/63/63
f 70/70/70 64/64/64 65/65/65
f 69/69/69 63/63/63 70/70/70
f 71/71/71 65/65/65 66/66/66
f 65/65/65 71/71/71 70/70/70
f 66/66/66 72/72/72 71/71/71
f 67/67/67 73/73/73 68/68/68
f 74/74/74 68/68/68 73/73/73
f 69/69/69 75/75/75 67/67/67
f 73/73/73 67/67/67 75/75/75
f 70/70/70 76/76/76 69/69/69
f 76/76/76 70/70/70 71/71/71
f 75/75/75 69/69/69 76/76/76
f 77/77/77 71/71/71 72/72/72
f 71/71/71 77/77/77 76/76/76
f 72/72/72 78/78/78 77/77/77
f 73/73/73 79/79/79 74/74/74
f 80/80/80 74/74/74 79/79/79
f 75/75/75 81/81/81 73/73/73
f 79/79/79 73/73/73 81/81/81
f 76/76/76 82/82/82 75/75/75
f 82/82/82 76/76/76 77/77/77
f 81/81/81 75/75/75 82/82/82
f 83/83/83 77/77/77 78/78/78
f 77/77/77 83/83/83 82/82/82
f 78/78/78 84/84/84 83/83/83
f 79/79/79 85/85/85 80/80/80
f 86/86/86 80/80/80 85/85/85
f 81/81/81 87/87/87 79/79/79
f 85/85/85 79/79/79 87/87/87
f 82/82/82 88/88/88 81/81/81
f 88/88/88 82/82/82 83/83/83
f 87/87/87 81/81/81 88/88/88
f 89/89/89 83/83/83 84/84/84
f 83/83/83 89/89/89 88/88/88
f 84/84/84 90/90/90 89/89/89
f 85/85/85 91/91/91 86/86/86
f 92/92/92 86/86/86 91/91/91
f 87/87/87 93/93/93 85/85/85
f 91/91/91 85/85/85 93/93/93
f 88/88/88 94/94/94 87/87/87
f 94/94/94 88/88/88 89/89/89
f 93/93/93 87/87/87 94/94/94
f 95/95/95 89/89/89 90/90/90
f 89/89/89 95/95/95 94/94/94
f 90/90/90 96/96/96 95/95/95
f 91/91/91 97/97/97 92/92/92
f 98/98/98 92/92/92 97/97/97
f 93/93/93 99/99/99 91/91/91
f 97/97/97 91/91/91 99/99/99
f 94/94/94 100/100/100 93/93/93
f 100/100/100 94/94/94 95/95/95
f 99/99/99 93/93/93 100/100/100
f 101/101/101 95/95/95 96/96/96
f 95/95/95 101/101/101 100/100/100
f 96/96/96 102/102/102 101/101/101
f 97/97/97 103/103/103 98/98/98
f 104/104/104 98/98/98 103/103/103
f 99/99/99 105/105/105 97/97/97
f 103/103/103 97/97/97 105/105/105
f 100/100/100 106/106/106 99/99/99
f 106/106/106 100/100/100 101/101/101
f 105/105/105 99/99/99 106/106/106
f 107/107/107 101/101/101 102/102/102
f 101/101/101 107/107/107 106/106/106
f 102/102/102 108/108/108 107/107/107
f 103/103/103 109/109/109 104/104/104
f 110/110/110 104/104/104 109/109/109
f 105/105/105 111/111/111 103/103/103
f 109/109/109 103/103/103 111/111/111
f 106/106/106 112/112/112 105/105/105
f 112/112/112 106/106/106 107/107/107
f 111/111/111 105/105/105 112/112/112
f 113/113/113 107/107/107 108/108/108
f 107/107/107 113/113/113 112/112/112
f 108/108/108 114/114/114 113/113/113
f 109/109/109 115/115/115 110/110/110
f 116/116/116 110/110/110 115/115/115
f 111/111/111 117/117/117 109/109/109
f 115/115/115 109/109/109 117/117/117
f 112/112/112 118/118/118 111/111/111
f 118/118/118 112/112/112 113/113/113
f 117/117/117 111/111/111 118/118/118
f 119/119/119 113/113/113 114/114/114
f 113/113/113 119/119/119 118/118/118
f 114/114/114 120/120/120 119/119/119
f 115/115/115 121/121/121 116/116/116
f 122/122/122 116/116/116 121/121/121
f 117/117/117 123/123/123 115/115/115
f 121/121/121 115/115/115 123/123/123
f 118/118/118 124/124/124 117/117/117
f 124/124/124 118/118/118 119/119/119
f 123/123/123 117/117/117 124/124/124
f 125/125/125 119/119/119 120/120/120
f 119/119/119 125/125/125 124/124/124
f 120/120/120 126/126/126 125/125/125
f 121/121/121 127/127/127 122/122/122
f 128/128/128 122/122/122 127/127/127
f 123/123/123 129/129/129 121/121/121
f 127/127/127 121/121/121 129/129/129
f 124/124/124 130/130/130 123/123/123
f 130/130/130 124/124/124 125/125/125
f 129/129/129 123/123/123 130/130/130
f 131/131/131 125/125/125 126/126/126
f 125/125/125 131/131/131 130/130/130
f 126/126/126 132/132/132 131/131/131
f 127/127/127 133/133/133 128/128/128
f 134/134/134 128/128/128 133/133/133
f 129/129/129 135/135/135 127/127/127
f 133/133/133 127/127/127 135/135/135
f 130/130/130 136/136/136 129/129/129
f 136/136/136 130/130/130 131/131/131
f 135/135/135 129/129/129 136/136/136
f 137/137/137 131/131/131 132/132/132
f 131/131/131 137/137/137 136/136/136
f 132/132/132 138/138/138 137/137/137
f 133/133/133 139/139/139 134/134/134
f 140/140/140 134/134/134 139/139/139
f 139/139/139 141/141/141 140/140/140
f 135/135/135 142/142/142 133/133/133
f 139/139/139 133/133/133 142/142/142
f 136/136/136 143/143/143 135/135/135
f 143/143/143 136/136/136 137/137/137
f 142/142/142 135/135/135 143/143/143
f 144/144/144 137/137/137 138/138/138
f 137/137/137 144/144/144 143/143/143
f 138/138/138 145/145/145 144/144/144
f 141/141/141 139/139/139 146/146/146
f 142/142/142 146/146/146 139/139/139
f 146/146/146 147/147/147 141/141/141
f 143/143/143 148/148/148 142/142/142
f 148/148/148 143/143/143 144/144/144
f 146/146/146 142/142/142 148/148/148
f 149/149/149 144/144/144 145/145/145
f 144/144/144 149/149/149 148/148/148
f 145/145/145 150/150/150 149/149/149
f 147/147/147 146/146/146 151/151/151
f 148/148/148 151/151/151 146/146/146
f 151/151/151 148/148/148 149/149/149
f 151/151/151 152/152/152 147/147/147
f 153/153/153 149/149/149 150/150/150
f 149/149/149 153/153/153 151/151/151
f 152/152/152 151/151/151 153/153/153
f 150/150/150 154/154/154 153/153/153
f 153/153/153 155/155/155 152/152/152
f 155/155/155 153/153/153 154/154/154
f 154/154/154 156/156/156 155/155/155
