#Plane003.obj

v 0.001323013 0.02897704 0.01803186
v 0.0003281402 -0.0003364658 0.007050366
v 0.000747242 -0.0002788162 0.007207084
v -0.003134689 0.02880047 0.01690354
v -9.096145E-05 -0.0003941059 0.006893649
v 0.006000252 0.05568384 0.02767261
v -0.007607307 0.02862335 0.01577146
v -0.0005100631 -0.0004517555 0.006736935
v -0.01209485 0.02844556 0.01463558
v -0.002552652 0.05624086 0.02633543
v 0.01410807 0.07962087 0.03626916
v -0.01116631 0.05680178 0.02498873
v -0.01984068 0.05736668 0.02363255
v 0.001662245 0.08181126 0.0353532
v 0.02502595 0.1007133 0.04392931
v -0.0109197 0.08402562 0.03442723
v -0.02363779 0.08626393 0.03349123
v 0.009109898 0.1053877 0.04395548
v 0.03819885 0.1189895 0.05074298
v -0.007042532 0.1101315 0.04398205
v -0.02343134 0.1149447 0.044009
v 0.01940809 0.1268827 0.05213661
v 0.05314553 0.1345367 0.05678644
v 0.0002632523 0.1349245 0.05355649
v -0.01923567 0.1431151 0.05500263
v 0.03219669 0.1462317 0.05988791
v 0.06945133 0.1474609 0.06212078
v 0.01076785 0.1581946 0.06306043
v -0.01114099 0.1704255 0.06630402
v 0.0471362 0.1633799 0.06719692
v 0.08675127 0.1578622 0.06679031
v 0.02421715 0.1797298 0.07241044
v 0.0006941414 0.1965105 0.07776134
v 0.06390305 0.1782739 0.07404663
v 0.1047048 0.1658208 0.07082068
v 0.04033972 0.1993244 0.08153006
v 0.01606128 0.2210137 0.0892406
v 0.08218094 0.1908558 0.08041437
v 0.1229785 0.1714016 0.0742221
v 0.05885485 0.2167826 0.09034977
v 0.0347265 0.243601 0.1006269
v 0.1016552 0.2010656 0.08627278
v 0.1412325 0.1746643 0.07699259
v 0.07947832 0.231917 0.09880579
v 0.05644798 0.2639557 0.1118211
v 0.1220074 0.208844 0.09159069
v 0.159116 0.1756794 0.07912348
v 0.1019264 0.2445455 0.1068388
v 0.08098943 0.2817689 0.1227368
v 0.1429143 0.2141386 0.09633503
v 0.1762744 0.1745457 0.08060589
v 0.1259168 0.2544868 0.114392
v 0.1081235 0.2967239 0.1332942
v 0.1640492 0.216911 0.1004732
v 0.1923659 0.1714049 0.08143742
v 0.1511663 0.2615557 0.1214094
v 0.1376256 0.30848 0.1434146
v 0.1850894 0.2171429 0.1039754
v 0.2070918 0.1664483 0.0816292
v 0.1773865 0.2655607 0.127834
v 0.1692573 0.3166586 0.1530131
v 0.2057272 0.2148395 0.106818
v 0.2202359 0.1599081 0.0812108
v 0.204276 0.2663029 0.1336059
v 0.2027382 0.3208383 0.1619929
v 0.225687 0.2100276 0.1089853
v 0.2317067 0.1520262 0.08023153
v 0.2315115 0.2635794 0.1386618
v 0.2377092 0.3205634 0.1702403
v 0.2447434 0.2027438 0.1104706
v 0.2415661 0.1429948 0.07875404
v 0.2587394 0.2571935 0.1429349
v 0.2736948 0.3153755 0.1776245
v 0.262735 0.1930107 0.1112741
v 0.2500234 0.1328821 0.07684045
v 0.2795658 0.1808069 0.1113977
v 0.2855722 0.2469684 0.1463571
v 0.3100777 0.3048677 0.1840029
v 0.3115939 0.2327643 0.1488628
v 0.3461079 0.2887543 0.1892357

vn 0.2216289 0.3134728 -0.9233717
vn 0.2864734 0.3330045 -0.8983546
vn 0.2912225 0.3269242 -0.8990607
vn 0.2180082 0.3217871 -0.9213716
vn 0.2841399 0.342328 -0.895587
vn 0.1688958 0.2969408 -0.9398406
vn 0.217078 0.329571 -0.9188363
vn 0.2804902 0.3466008 -0.8950939
vn 0.2140714 0.3329234 -0.9183331
vn 0.1649768 0.3094922 -0.9364813
vn 0.1252942 0.2931815 -0.9478112
vn 0.1651552 0.322488 -0.9320544
vn 0.1612005 0.3286906 -0.9305788
vn 0.1227694 0.3086458 -0.9432207
vn 0.09094888 0.2992831 -0.9498199
vn 0.1251038 0.3241125 -0.93771
vn 0.1217084 0.3324228 -0.9352445
vn 0.09077271 0.3161691 -0.9443503
vn 0.06584184 0.3124832 -0.9476386
vn 0.09545568 0.3320622 -0.9384151
vn 0.09350856 0.3415342 -0.9352061
vn 0.06826981 0.3293594 -0.9417333
vn 0.04965969 0.3302288 -0.9425937
vn 0.0749658 0.344283 -0.9358682
vn 0.07478471 0.3539935 -0.9322531
vn 0.05440845 0.3459411 -0.9366773
vn 0.04177044 0.3503226 -0.9356973
vn 0.06252509 0.3590645 -0.931216
vn 0.06401493 0.368277 -0.9275097
vn 0.04824208 0.3641029 -0.9301084
vn 0.04133173 0.3710225 -0.9277036
vn 0.05712701 0.3750425 -0.9252457
vn 0.05996351 0.3832679 -0.9216887
vn 0.04882093 0.3824866 -0.9226704
vn 0.04745708 0.3910526 -0.919144
vn 0.05788056 0.3911754 -0.9184942
vn 0.06165738 0.3981529 -0.9152445
vn 0.05528669 0.4001183 -0.9147943
vn 0.05934799 0.4095098 -0.9103733
vn 0.06403917 0.4066886 -0.9113196
vn 0.06835927 0.4123342 -0.9084644
vn 0.06693313 0.4163021 -0.9067593
vn 0.07636473 0.4257369 -0.9016189
vn 0.07501853 0.4209974 -0.9039544
vn 0.07953925 0.4253481 -0.9015279
vn 0.08322398 0.4305071 -0.8987421
vn 0.09803034 0.4391894 -0.89303
vn 0.09039234 0.4336221 -0.8965495
vn 0.09484152 0.4367892 -0.8945503
vn 0.1037698 0.4422634 -0.8908619
vn 0.1239698 0.4493245 -0.8847254
vn 0.1098621 0.4441086 -0.889212
vn 0.1140397 0.4462456 -0.8876146
vn 0.1282661 0.4510799 -0.8832184
vn 0.1538206 0.4555351 -0.8768278
vn 0.1332016 0.4519651 -0.8820344
vn 0.1369754 0.453245 -0.8807989
vn 0.1564133 0.4563999 -0.8759189
vn 0.1870964 0.4571387 -0.8694937
vn 0.1601815 0.4566228 -0.8751215
vn 0.1634803 0.4572201 -0.874199
vn 0.1878131 0.4575932 -0.8691
vn 0.2230362 0.4534442 -0.8629271
vn 0.1904711 0.4574287 -0.8686079
vn 0.1932766 0.4575086 -0.8679459
vn 0.2218559 0.4540037 -0.8629372
vn 0.2604851 0.4439177 -0.8573707
vn 0.2235299 0.4536902 -0.8626701
vn 0.2258658 0.4533958 -0.8622162
vn 0.2576363 0.4450609 -0.8576388
vn 0.2979023 0.428414 -0.8530625
vn 0.258518 0.4447785 -0.8575199
vn 0.2604381 0.4442245 -0.8572261
vn 0.2939345 0.4304395 -0.8534192
vn 0.3117074 0.4217112 -0.8514683
vn 0.311973 0.4216 -0.8514261
vn 0.2942642 0.4302876 -0.8533822
vn 0.2958377 0.4295561 -0.8532067
vn 0.3120934 0.4215282 -0.8514174
vn 0.3121565 0.4215033 -0.8514066

vt -4.768497E-08 0.0526315
vt 0.3333333 -5.960464E-08
vt -4.37114E-08 -5.960464E-08
vt 0.3333333 0.0526315
vt 0.6666666 0
vt -5.165855E-08 0.1052631
vt 0.6666666 0.05263156
vt 1 0
vt 1 0.05263156
vt 0.3333333 0.1052631
vt -5.563212E-08 0.1578946
vt 0.6666666 0.1052631
vt 1 0.1052631
vt 0.3333333 0.1578946
vt -5.960569E-08 0.2105262
vt 0.6666666 0.1578947
vt 1 0.1578947
vt 0.3333333 0.2105262
vt -6.357926E-08 0.2631577
vt 0.6666666 0.2105262
vt 0.9999999 0.2105262
vt 0.3333333 0.2631577
vt -6.755283E-08 0.3157893
vt 0.6666666 0.2631578
vt 0.9999999 0.2631578
vt 0.3333333 0.3157893
vt -7.152641E-08 0.3684208
vt 0.6666666 0.3157893
vt 0.9999999 0.3157893
vt 0.3333333 0.3684208
vt -7.549998E-08 0.4210524
vt 0.6666666 0.3684209
vt 0.9999999 0.3684209
vt 0.3333333 0.4210524
vt -7.947355E-08 0.473684
vt 0.6666666 0.4210525
vt 0.9999999 0.4210525
vt 0.3333333 0.473684
vt -8.344712E-08 0.5263155
vt 0.6666666 0.473684
vt 0.9999999 0.473684
vt 0.3333333 0.5263156
vt -8.74207E-08 0.5789471
vt 0.6666666 0.5263156
vt 0.9999999 0.5263156
vt 0.3333333 0.5789471
vt -9.139427E-08 0.6315787
vt 0.6666666 0.5789472
vt 0.9999999 0.5789472
vt 0.3333333 0.6315787
vt -9.536785E-08 0.6842103
vt 0.6666666 0.6315787
vt 0.9999999 0.6315788
vt 0.3333333 0.6842103
vt -9.934142E-08 0.7368419
vt 0.6666666 0.6842103
vt 0.9999999 0.6842104
vt 0.3333333 0.7368419
vt -1.03315E-07 0.7894734
vt 0.6666666 0.7368419
vt 0.9999999 0.7368419
vt 0.3333333 0.7894735
vt -1.072886E-07 0.842105
vt 0.6666666 0.7894735
vt 0.9999999 0.7894735
vt 0.3333332 0.842105
vt -1.112621E-07 0.8947366
vt 0.6666666 0.8421051
vt 0.9999999 0.8421051
vt 0.3333332 0.8947366
vt -1.152357E-07 0.9473682
vt 0.6666666 0.8947366
vt 0.9999999 0.8947366
vt 0.3333332 0.9473682
vt -1.192093E-07 0.9999998
vt 0.3333332 0.9999998
vt 0.6666666 0.9473683
vt 0.9999999 0.9473683
vt 0.6666666 0.9999998
vt 0.9999999 0.9999998

g Plane003
usemtl Plane003
usemap Plane003
f 1/1/1 3/3/3 2/2/2
f 2/2/2 4/4/4 1/1/1
f 4/4/4 2/2/2 5/5/5
f 6/6/6 1/1/1 4/4/4
f 5/5/5 7/7/7 4/4/4
f 7/7/7 5/5/5 8/8/8
f 8/8/8 9/9/9 7/7/7
f 4/4/4 10/10/10 6/6/6
f 10/10/10 4/4/4 7/7/7
f 11/11/11 6/6/6 10/10/10
f 12/12/12 7/7/7 9/9/9
f 7/7/7 12/12/12 10/10/10
f 9/9/9 13/13/13 12/12/12
f 10/10/10 14/14/14 11/11/11
f 14/14/14 10/10/10 12/12/12
f 15/15/15 11/11/11 14/14/14
f 16/16/16 12/12/12 13/13/13
f 12/12/12 16/16/16 14/14/14
f 13/13/13 17/17/17 16/16/16
f 14/14/14 18/18/18 15/15/15
f 18/18/18 14/14/14 16/16/16
f 19/19/19 15/15/15 18/18/18
f 20/20/20 16/16/16 17/17/17
f 16/16/16 20/20/20 18/18/18
f 17/17/17 21/21/21 20/20/20
f 18/18/18 22/22/22 19/19/19
f 22/22/22 18/18/18 20/20/20
f 23/23/23 19/19/19 22/22/22
f 24/24/24 20/20/20 21/21/21
f 20/20/20 24/24/24 22/22/22
f 21/21/21 25/25/25 24/24/24
f 22/22/22 26/26/26 23/23/23
f 26/26/26 22/22/22 24/24/24
f 27/27/27 23/23/23 26/26/26
f 28/28/28 24/24/24 25/25/25
f 24/24/24 28/28/28 26/26/26
f 25/25/25 29/29/29 28/28/28
f 26/26/26 30/30/30 27/27/27
f 30/30/30 26/26/26 28/28/28
f 31/31/31 27/27/27 30/30/30
f 32/32/32 28/28/28 29/29/29
f 28/28/28 32/32/32 30/30/30
f 29/29/29 33/33/33 32/32/32
f 30/30/30 34/34/34 31/31/31
f 34/34/34 30/30/30 32/32/32
f 35/35/35 31/31/31 34/34/34
f 36/36/36 32/32/32 33/33/33
f 32/32/32 36/36/36 34/34/34
f 33/33/33 37/37/37 36/36/36
f 34/34/34 38/38/38 35/35/35
f 38/38/38 34/34/34 36/36/36
f 39/39/39 35/35/35 38/38/38
f 40/40/40 36/36/36 37/37/37
f 36/36/36 40/40/40 38/38/38
f 37/37/37 41/41/41 40/40/40
f 38/38/38 42/42/42 39/39/39
f 42/42/42 38/38/38 40/40/40
f 43/43/43 39/39/39 42/42/42
f 44/44/44 40/40/40 41/41/41
f 40/40/40 44/44/44 42/42/42
f 41/41/41 45/45/45 44/44/44
f 42/42/42 46/46/46 43/43/43
f 46/46/46 42/42/42 44/44/44
f 47/47/47 43/43/43 46/46/46
f 48/48/48 44/44/44 45/45/45
f 44/44/44 48/48/48 46/46/46
f 45/45/45 49/49/49 48/48/48
f 46/46/46 50/50/50 47/47/47
f 50/50/50 46/46/46 48/48/48
f 51/51/51 47/47/47 50/50/50
f 52/52/52 48/48/48 49/49/49
f 48/48/48 52/52/52 50/50/50
f 49/49/49 53/53/53 52/52/52
f 50/50/50 54/54/54 51/51/51
f 54/54/54 50/50/50 52/52/52
f 55/55/55 51/51/51 54/54/54
f 56/56/56 52/52/52 53/53/53
f 52/52/52 56/56/56 54/54/54
f 53/53/53 57/57/57 56/56/56
f 54/54/54 58/58/58 55/55/55
f 58/58/58 54/54/54 56/56/56
f 59/59/59 55/55/55 58/58/58
f 60/60/60 56/56/56 57/57/57
f 56/56/56 60/60/60 58/58/58
f 57/57/57 61/61/61 60/60/60
f 58/58/58 62/62/62 59/59/59
f 62/62/62 58/58/58 60/60/60
f 63/63/63 59/59/59 62/62/62
f 64/64/64 60/60/60 61/61/61
f 60/60/60 64/64/64 62/62/62
f 61/61/61 65/65/65 64/64/64
f 62/62/62 66/66/66 63/63/63
f 66/66/66 62/62/62 64/64/64
f 67/67/67 63/63/63 66/66/66
f 68/68/68 64/64/64 65/65/65
f 64/64/64 68/68/68 66/66/66
f 65/65/65 69/69/69 68/68/68
f 66/66/66 70/70/70 67/67/67
f 70/70/70 66/66/66 68/68/68
f 71/71/71 67/67/67 70/70/70
f 72/72/72 68/68/68 69/69/69
f 68/68/68 72/72/72 70/70/70
f 69/69/69 73/73/73 72/72/72
f 70/70/70 74/74/74 71/71/71
f 74/74/74 70/70/70 72/72/72
f 75/75/75 71/71/71 74/74/74
f 74/74/74 76/76/76 75/75/75
f 77/77/77 72/72/72 73/73/73
f 72/72/72 77/77/77 74/74/74
f 76/76/76 74/74/74 77/77/77
f 73/73/73 78/78/78 77/77/77
f 77/77/77 79/79/79 76/76/76
f 79/79/79 77/77/77 78/78/78
f 78/78/78 80/80/80 79/79/79
