#ring_03.obj

v 0.03499362 -0.1646319 2.599349E-08
v 5.609842E-08 -0.2433099 3.715468E-08
v 4.468553E-08 -0.1683099 3.059797E-08
v 0.05058701 -0.2379929 3.179695E-08
v 6.751132E-08 -0.3183098 4.371138E-08
v 0.0684578 -0.1537587 2.114135E-08
v 0.06618039 -0.311354 3.760041E-08
v 7.892422E-08 -0.3933099 5.026809E-08
v 0.09896306 -0.2222746 2.608121E-08
v 0.09893006 -0.1361655 1.612625E-08
v 0.08177377 -0.384715 4.340387E-08
v 9.033712E-08 -0.4683098 5.68248E-08
v 0.09736715 -0.4580761 4.920733E-08
v 0.143014 -0.1968418 2.012988E-08
v 0.1250786 -0.1126213 1.104002E-08
v 0.1294683 -0.2907905 3.102105E-08
v 0.1599736 -0.3593064 3.59609E-08
v 0.1904788 -0.4278223 4.090076E-08
v 0.1808145 -0.1628061 1.407573E-08
v 0.1457606 -0.08415493 5.977586E-09
v 0.1870978 -0.2575181 2.413351E-08
v 0.2311817 -0.3181943 2.813714E-08
v 0.2752656 -0.3788706 3.214077E-08
v 0.2107125 -0.1216549 8.055981E-09
v 0.1600722 -0.05201061 1.032838E-09
v 0.2365503 -0.2129909 1.711143E-08
v 0.2922862 -0.2631757 2.014714E-08
v 0.348022 -0.3133605 2.318286E-08
v 0.2314014 -0.07518688 2.206361E-09
v 0.1673878 -0.01759315 -3.705463E-09
v 0.2756644 -0.159155 1.013438E-08
v 0.3406163 -0.196655 1.221277E-08
v 0.4055682 -0.234155 1.429116E-08
v 0.241977 -0.02543282 -3.344821E-09
v 0.1673878 0.01759319 -8.157603E-09
v 0.3027307 -0.09836315 3.37988E-09
v 0.3740599 -0.1215395 4.553403E-09
v 0.4453892 -0.1447157 5.726926E-09
v 0.241977 0.02543282 -8.482325E-09
v 0.1600722 0.05201063 -1.225635E-08
v 0.3165661 -0.03327244 -2.984179E-09
v 0.3911552 -0.04111206 -2.623544E-09
v 0.4657444 -0.04895172 -2.2629E-09
v 0.2314014 0.07518692 -1.310897E-08
v 0.1457606 0.08415495 -1.594994E-08
v 0.3165661 0.03327246 -8.807048E-09
v 0.3911552 0.0411121 -9.13177E-09
v 0.4657444 0.04895174 -9.456489E-09
v 0.2107125 0.121655 -1.71499E-08
v 0.1250786 0.1126213 -1.920429E-08
v 0.3027307 0.09836319 -1.396158E-08
v 0.3740599 0.1215395 -1.481419E-08
v 0.4453892 0.1447158 -1.56668E-08
v 0.1808144 0.1628061 -2.055588E-08
v 0.09893003 0.1361656 -2.200455E-08
v 0.2756644 0.159155 -1.834986E-08
v 0.3406163 0.196655 -1.954982E-08
v 0.4055682 0.234155 -2.074978E-08
v 0.1430139 0.1968419 -2.330541E-08
v 0.06845777 0.1537587 -2.435568E-08
v 0.2365503 0.2129909 -2.190746E-08
v 0.2922861 0.2631757 -2.325905E-08
v 0.348022 0.3133605 -2.461064E-08
v 0.098963 0.2222746 -2.540568E-08
v 0.03499356 0.1646319 -2.628229E-08
v 0.1870978 0.2575181 -2.460627E-08
v 0.2311817 0.3181944 -2.590712E-08
v 0.2752655 0.3788707 -2.720798E-08
v 0.05058692 0.237993 -2.689225E-08
v -2.629532E-08 0.1683099 -2.782753E-08
v 0.1294682 0.2907906 -2.645567E-08
v 0.1599735 0.3593065 -2.750567E-08
v 0.1904787 0.4278224 -2.855567E-08
v -4.651197E-08 0.2433099 -2.782753E-08
v -0.03499362 0.1646319 -2.905123E-08
v 0.06618028 0.311354 -2.750222E-08
v 0.08177363 0.3847151 -2.811219E-08
v 0.097367 0.4580761 -2.872216E-08
v -0.05058701 0.2379929 -2.829798E-08
v -0.06845781 0.1537587 -3.002728E-08
v -6.672862E-08 0.3183098 -2.782753E-08
v -8.694526E-08 0.3933099 -2.782753E-08
v -1.071619E-07 0.4683098 -2.782753E-08
v -0.09896307 0.2222746 -2.841042E-08
v -0.09893007 0.1361655 -3.084036E-08
v -0.06618041 0.311354 -2.754473E-08
v -0.0817738 0.3847151 -2.679148E-08
v -0.0973672 0.4580761 -2.603824E-08
v -0.143014 0.1968418 -2.828728E-08
v -0.1250786 0.1126212 -3.158231E-08
v -0.1294683 0.2907905 -2.679356E-08
v -0.1599736 0.3593064 -2.517671E-08
v -0.1904789 0.4278223 -2.355985E-08
v -0.1808145 0.162806 -2.806131E-08
v -0.1457606 0.08415489 -3.234806E-08
v -0.1870979 0.257518 -2.57342E-08
v -0.2311818 0.3181943 -2.318112E-08
v -0.2752657 0.3788705 -2.062805E-08
v -0.2107125 0.1216549 -2.786975E-08
v -0.1600722 0.05201055 -3.32315E-08
v -0.2365504 0.2129908 -2.454031E-08
v -0.2922862 0.2631756 -2.101931E-08
v -0.3480221 0.3133603 -1.749831E-08
v -0.2314014 0.0751868 -2.784831E-08
v -0.1673878 0.0175931 -3.432138E-08
v -0.2756644 0.1591548 -2.339143E-08
v -0.3406164 0.1966548 -1.891311E-08
v -0.4055683 0.2341548 -1.44348E-08
v -0.241977 0.0254327 -2.812531E-08
v -0.1673878 -0.01759323 -3.569744E-08
v -0.3027307 0.09836306 -2.246513E-08
v -0.3740599 0.1215393 -1.708194E-08
v -0.4453892 0.1447155 -1.169875E-08
v -0.2419769 -0.02543293 -2.8816E-08
v -0.1600721 -0.05201069 -3.742687E-08
v -0.3165661 0.0332723 -2.192925E-08
v -0.3911552 0.04111191 -1.573318E-08
v -0.4657444 0.04895151 -9.537107E-09
v -0.2314014 -0.075187 -3.001755E-08
v -0.1457605 -0.08415501 -3.956147E-08
v -0.3165661 -0.03327259 -2.193457E-08
v -0.3911552 -0.04111225 -1.505314E-08
v -0.4657443 -0.04895195 -8.17171E-09
v -0.2107124 -0.121655 -3.18048E-08
v -0.1250785 -0.1126213 -4.21353E-08
v -0.3027306 -0.0983633 -2.260823E-08
v -0.3740598 -0.1215396 -1.519891E-08
v -0.445389 -0.1447159 -7.789581E-09
v -0.1808143 -0.1628062 -3.4227E-08
v -0.09892996 -0.1361656 -4.516323E-08
v -0.2756643 -0.1591551 -2.404813E-08
v -0.3406161 -0.1966551 -1.629146E-08
v -0.4055681 -0.2341551 -8.534793E-09
v -0.1430138 -0.1968419 -3.730566E-08
v -0.0684577 -0.1537587 -4.864028E-08
v -0.2365502 -0.212991 -2.631872E-08
v -0.292286 -0.2631758 -1.841042E-08
v -0.3480218 -0.3133606 -1.050213E-08
v -0.09896292 -0.2222747 -4.103358E-08
v -0.0349935 -0.1646319 -5.254186E-08
v -0.1870977 -0.2575181 -2.94481E-08
v -0.2311815 -0.3181944 -2.159053E-08
v -0.2752654 -0.3788708 -1.373297E-08
v -0.05058685 -0.237993 -4.537518E-08
v 7.411375E-08 -0.1683099 -5.68248E-08
v 9.864007E-08 -0.2433099 -5.02681E-08
v -0.1294681 -0.2907906 -3.342688E-08
v -0.1599734 -0.3593065 -2.582017E-08
v -0.1904786 -0.4278224 -1.821346E-08
v -0.0661802 -0.311354 -3.820851E-08
v 1.231664E-07 -0.3183098 -4.371139E-08
v -0.08177355 -0.3847151 -3.104183E-08
v -0.09736689 -0.4580761 -2.387516E-08
v 1.476927E-07 -0.3933099 -3.715468E-08
v 1.72219E-07 -0.4683098 -3.059797E-08

vn 1.119425E-07 0 1
vn 0 0 1
vn 1.223921E-07 0 1
vn 0 0 1
vn 0 0 1
vn 0 1.103823E-07 1
vn 0 0 1
vn 0 0 1
vn 0 1.071826E-07 1
vn 0 1.20482E-07 1
vn 0 0 1
vn 0 0 1
vn 0 0 1
vn 0 1.129513E-07 1
vn 0 1.272264E-07 1
vn 0 1.016149E-07 1
vn 0 0 1
vn 0 0 1
vn 0 1.156939E-07 1
vn 0 1.303208E-07 1
vn 0 1.049579E-07 1
vn 0 1.000123E-07 1
vn 0 0 1
vn 0 1.152905E-07 1
vn 0 1.296299E-07 1
vn 0 1.056242E-07 1
vn 0 0 1
vn 0 0 1
vn 0 1.117589E-07 1
vn 0 1.251841E-07 1
vn 0 1.035846E-07 1
vn 0 0 1
vn 0 0 1
vn 0 1.052531E-07 1
vn 0 1.171774E-07 1
vn 0 0 1
vn 0 0 1
vn 0 0 1
vn 0 0 1
vn 0 1.0596E-07 1
vn 0 0 1
vn 0 0 1
vn 0 0 1
vn 0 0 1
vn 0 0 1
vn 0 0 1
vn 0 0 1
vn 0 0 1
vn 0 0 1
vn 0 0 1
vn 0 0 1
vn 0 0 1
vn 0 0 1
vn 0 0 1
vn 0 0 1
vn 0 0 1
vn 0 0 1
vn 0 0 1
vn 0 0 1
vn 0 0 1
vn 0 0 1
vn 0 0 1
vn 0 0 1
vn 0 0 1
vn 0 0 1
vn 0 0 1
vn 0 0 1
vn 0 0 1
vn 0 0 1
vn 0 0 1
vn 0 0 1
vn 0 0 1
vn 0 0 1
vn 0 0 1
vn 0 0 1
vn 0 0 1
vn 0 0 1
vn 0 0 1
vn 0 0 1
vn 0 0 1
vn 0 0 1
vn 0 0 1
vn 0 0 1
vn 0 0 1
vn 0 0 1
vn 0 0 1
vn 0 0 1
vn 0 0 1
vn 0 0 1
vn 0 0 1
vn 0 0 1
vn 0 0 1
vn 0 0 1
vn 0 0 1
vn 0 0 1
vn 0 0 1
vn 0 0 1
vn 0 0 1
vn 0 0 1
vn 0 0 1
vn 0 0 1
vn 0 0 1
vn 0 0 1
vn 0 0 1
vn 0 0 1
vn 0 0 1
vn 0 0 1
vn 0 0 1
vn 0 0 1
vn 0 0 1
vn 0 0 1
vn 0 0 1
vn 0 0 1
vn 0 0 1
vn 1.04207E-07 0 1
vn 0 0 1
vn 0 0 1
vn 0 0 1
vn 1.032373E-07 0 1
vn 1.158272E-07 0 1
vn 0 0 1
vn 0 0 1
vn 0 0 1
vn 1.104324E-07 0 1
vn 1.242956E-07 0 1
vn 0 0 1
vn 0 0 1
vn 0 0 1
vn 1.147116E-07 0 1
vn 1.292422E-07 0 1
vn 1.036146E-07 0 1
vn 0 0 1
vn 0 0 1
vn 1.158876E-07 0 1
vn 1.304505E-07 0 1
vn 1.056302E-07 0 1
vn 1.000106E-07 0 1
vn 0 0 1
vn 1.139092E-07 0 1
vn 1.27868E-07 0 1
vn 1.049398E-07 0 1
vn 0 0 1
vn 0 0 1
vn 1.088629E-07 0 1
vn 1.208228E-07 0 1
vn 1.022158E-07 0 1
vn 1.015733E-07 0 1
vn 0 0 1
vn 0 0 1
vn 0 0 1
vn 0 0 1
vn 0 0 1
vn 0 0 1
vn 0 0 1
vn 0 0 1

vt 0.9666671 0
vt 1 0.25
vt 1 0
vt 0.9666671 0.25
vt 1 0.5
vt 0.9333337 0
vt 0.9666671 0.5
vt 1 0.75
vt 0.9333337 0.25
vt 0.9000003 0
vt 0.9666671 0.75
vt 1 1
vt 0.9666671 1
vt 0.9000003 0.25
vt 0.866667 0
vt 0.9333337 0.5
vt 0.9333337 0.75
vt 0.9333337 1
vt 0.866667 0.25
vt 0.8333336 0
vt 0.9000003 0.5
vt 0.9000003 0.75
vt 0.9000003 1
vt 0.8333336 0.25
vt 0.8000003 0
vt 0.866667 0.5
vt 0.866667 0.75
vt 0.866667 1
vt 0.8000003 0.25
vt 0.7666669 0
vt 0.8333336 0.5
vt 0.8333336 0.75
vt 0.8333336 1
vt 0.7666669 0.25
vt 0.7333335 0
vt 0.8000003 0.5
vt 0.8000003 0.75
vt 0.8000003 1
vt 0.7333335 0.25
vt 0.7000002 0
vt 0.7666669 0.5
vt 0.7666669 0.75
vt 0.7666669 1
vt 0.7000002 0.25
vt 0.6666668 0
vt 0.7333335 0.5
vt 0.7333335 0.75
vt 0.7333335 1
vt 0.6666668 0.25
vt 0.6333334 0
vt 0.7000002 0.5
vt 0.7000002 0.75
vt 0.7000002 1
vt 0.6333334 0.25
vt 0.6000001 0
vt 0.6666668 0.5
vt 0.6666668 0.75
vt 0.6666668 1
vt 0.6000001 0.25
vt 0.5666667 0
vt 0.6333334 0.5
vt 0.6333334 0.75
vt 0.6333334 1
vt 0.5666667 0.25
vt 0.5333334 0
vt 0.6000001 0.5
vt 0.6000001 0.75
vt 0.6000001 1
vt 0.5333334 0.25
vt 0.5 0
vt 0.5666667 0.5
vt 0.5666667 0.75
vt 0.5666667 1
vt 0.5 0.25
vt 0.4666667 0
vt 0.5333334 0.5
vt 0.5333334 0.75
vt 0.5333334 1
vt 0.4666667 0.25
vt 0.4333333 0
vt 0.5 0.5
vt 0.5 0.75
vt 0.5 1
vt 0.4333333 0.25
vt 0.4 0
vt 0.4666667 0.5
vt 0.4666667 0.75
vt 0.4666667 1
vt 0.4 0.25
vt 0.3666667 0
vt 0.4333333 0.5
vt 0.4333333 0.75
vt 0.4333333 1
vt 0.3666667 0.25
vt 0.3333333 0
vt 0.4 0.5
vt 0.4 0.75
vt 0.4 1
vt 0.3333333 0.25
vt 0.3 0
vt 0.3666667 0.5
vt 0.3666667 0.75
vt 0.3666667 1
vt 0.3 0.25
vt 0.2666667 0
vt 0.3333333 0.5
vt 0.3333333 0.75
vt 0.3333333 1
vt 0.2666667 0.25
vt 0.2333333 0
vt 0.3 0.5
vt 0.3 0.75
vt 0.3 1
vt 0.2333333 0.25
vt 0.2 0
vt 0.2666667 0.5
vt 0.2666667 0.75
vt 0.2666667 1
vt 0.2 0.25
vt 0.1666667 0
vt 0.2333333 0.5
vt 0.2333333 0.75
vt 0.2333333 1
vt 0.1666667 0.25
vt 0.1333333 0
vt 0.2 0.5
vt 0.2 0.75
vt 0.2 1
vt 0.1333333 0.25
vt 0.1 0
vt 0.1666667 0.5
vt 0.1666667 0.75
vt 0.1666667 1
vt 0.1 0.25
vt 0.06666667 0
vt 0.1333333 0.5
vt 0.1333333 0.75
vt 0.1333333 1
vt 0.06666667 0.25
vt 0.03333334 0
vt 0.1 0.5
vt 0.1 0.75
vt 0.1 1
vt 0.03333334 0.25
vt 0 0
vt 0 0.25
vt 0.06666667 0.5
vt 0.06666667 0.75
vt 0.06666667 1
vt 0.03333334 0.5
vt 0 0.5
vt 0.03333334 0.75
vt 0.03333334 1
vt 0 0.75
vt 0 1

g ring_03
usemtl ring_03
usemap ring_03
f 1/1/1 3/3/3 2/2/2
f 2/2/2 4/4/4 1/1/1
f 4/4/4 2/2/2 5/5/5
f 6/6/6 1/1/1 4/4/4
f 5/5/5 7/7/7 4/4/4
f 7/7/7 5/5/5 8/8/8
f 4/4/4 9/9/9 6/6/6
f 9/9/9 4/4/4 7/7/7
f 10/10/10 6/6/6 9/9/9
f 8/8/8 11/11/11 7/7/7
f 11/11/11 8/8/8 12/12/12
f 12/12/12 13/13/13 11/11/11
f 9/9/9 14/14/14 10/10/10
f 15/15/15 10/10/10 14/14/14
f 7/7/7 16/16/16 9/9/9
f 16/16/16 7/7/7 11/11/11
f 14/14/14 9/9/9 16/16/16
f 17/17/17 11/11/11 13/13/13
f 11/11/11 17/17/17 16/16/16
f 13/13/13 18/18/18 17/17/17
f 14/14/14 19/19/19 15/15/15
f 20/20/20 15/15/15 19/19/19
f 16/16/16 21/21/21 14/14/14
f 21/21/21 16/16/16 17/17/17
f 19/19/19 14/14/14 21/21/21
f 22/22/22 17/17/17 18/18/18
f 17/17/17 22/22/22 21/21/21
f 18/18/18 23/23/23 22/22/22
f 19/19/19 24/24/24 20/20/20
f 25/25/25 20/20/20 24/24/24
f 21/21/21 26/26/26 19/19/19
f 26/26/26 21/21/21 22/22/22
f 24/24/24 19/19/19 26/26/26
f 27/27/27 22/22/22 23/23/23
f 22/22/22 27/27/27 26/26/26
f 23/23/23 28/28/28 27/27/27
f 24/24/24 29/29/29 25/25/25
f 30/30/30 25/25/25 29/29/29
f 26/26/26 31/31/31 24/24/24
f 31/31/31 26/26/26 27/27/27
f 29/29/29 24/24/24 31/31/31
f 32/32/32 27/27/27 28/28/28
f 27/27/27 32/32/32 31/31/31
f 28/28/28 33/33/33 32/32/32
f 29/29/29 34/34/34 30/30/30
f 35/35/35 30/30/30 34/34/34
f 31/31/31 36/36/36 29/29/29
f 36/36/36 31/31/31 32/32/32
f 34/34/34 29/29/29 36/36/36
f 37/37/37 32/32/32 33/33/33
f 32/32/32 37/37/37 36/36/36
f 33/33/33 38/38/38 37/37/37
f 34/34/34 39/39/39 35/35/35
f 40/40/40 35/35/35 39/39/39
f 36/36/36 41/41/41 34/34/34
f 41/41/41 36/36/36 37/37/37
f 39/39/39 34/34/34 41/41/41
f 42/42/42 37/37/37 38/38/38
f 37/37/37 42/42/42 41/41/41
f 38/38/38 43/43/43 42/42/42
f 39/39/39 44/44/44 40/40/40
f 45/45/45 40/40/40 44/44/44
f 41/41/41 46/46/46 39/39/39
f 46/46/46 41/41/41 42/42/42
f 44/44/44 39/39/39 46/46/46
f 47/47/47 42/42/42 43/43/43
f 42/42/42 47/47/47 46/46/46
f 43/43/43 48/48/48 47/47/47
f 44/44/44 49/49/49 45/45/45
f 50/50/50 45/45/45 49/49/49
f 46/46/46 51/51/51 44/44/44
f 51/51/51 46/46/46 47/47/47
f 49/49/49 44/44/44 51/51/51
f 52/52/52 47/47/47 48/48/48
f 47/47/47 52/52/52 51/51/51
f 48/48/48 53/53/53 52/52/52
f 49/49/49 54/54/54 50/50/50
f 55/55/55 50/50/50 54/54/54
f 51/51/51 56/56/56 49/49/49
f 56/56/56 51/51/51 52/52/52
f 54/54/54 49/49/49 56/56/56
f 57/57/57 52/52/52 53/53/53
f 52/52/52 57/57/57 56/56/56
f 53/53/53 58/58/58 57/57/57
f 54/54/54 59/59/59 55/55/55
f 60/60/60 55/55/55 59/59/59
f 56/56/56 61/61/61 54/54/54
f 61/61/61 56/56/56 57/57/57
f 59/59/59 54/54/54 61/61/61
f 62/62/62 57/57/57 58/58/58
f 57/57/57 62/62/62 61/61/61
f 58/58/58 63/63/63 62/62/62
f 59/59/59 64/64/64 60/60/60
f 65/65/65 60/60/60 64/64/64
f 61/61/61 66/66/66 59/59/59
f 66/66/66 61/61/61 62/62/62
f 64/64/64 59/59/59 66/66/66
f 67/67/67 62/62/62 63/63/63
f 62/62/62 67/67/67 66/66/66
f 63/63/63 68/68/68 67/67/67
f 64/64/64 69/69/69 65/65/65
f 70/70/70 65/65/65 69/69/69
f 66/66/66 71/71/71 64/64/64
f 71/71/71 66/66/66 67/67/67
f 69/69/69 64/64/64 71/71/71
f 72/72/72 67/67/67 68/68/68
f 67/67/67 72/72/72 71/71/71
f 68/68/68 73/73/73 72/72/72
f 69/69/69 74/74/74 70/70/70
f 75/75/75 70/70/70 74/74/74
f 71/71/71 76/76/76 69/69/69
f 76/76/76 71/71/71 72/72/72
f 74/74/74 69/69/69 76/76/76
f 77/77/77 72/72/72 73/73/73
f 72/72/72 77/77/77 76/76/76
f 73/73/73 78/78/78 77/77/77
f 74/74/74 79/79/79 75/75/75
f 80/80/80 75/75/75 79/79/79
f 76/76/76 81/81/81 74/74/74
f 81/81/81 76/76/76 77/77/77
f 79/79/79 74/74/74 81/81/81
f 82/82/82 77/77/77 78/78/78
f 77/77/77 82/82/82 81/81/81
f 78/78/78 83/83/83 82/82/82
f 79/79/79 84/84/84 80/80/80
f 85/85/85 80/80/80 84/84/84
f 81/81/81 86/86/86 79/79/79
f 86/86/86 81/81/81 82/82/82
f 84/84/84 79/79/79 86/86/86
f 87/87/87 82/82/82 83/83/83
f 82/82/82 87/87/87 86/86/86
f 83/83/83 88/88/88 87/87/87
f 84/84/84 89/89/89 85/85/85
f 90/90/90 85/85/85 89/89/89
f 86/86/86 91/91/91 84/84/84
f 91/91/91 86/86/86 87/87/87
f 89/89/89 84/84/84 91/91/91
f 92/92/92 87/87/87 88/88/88
f 87/87/87 92/92/92 91/91/91
f 88/88/88 93/93/93 92/92/92
f 89/89/89 94/94/94 90/90/90
f 95/95/95 90/90/90 94/94/94
f 91/91/91 96/96/96 89/89/89
f 96/96/96 91/91/91 92/92/92
f 94/94/94 89/89/89 96/96/96
f 97/97/97 92/92/92 93/93/93
f 92/92/92 97/97/97 96/96/96
f 93/93/93 98/98/98 97/97/97
f 94/94/94 99/99/99 95/95/95
f 100/100/100 95/95/95 99/99/99
f 96/96/96 101/101/101 94/94/94
f 101/101/101 96/96/96 97/97/97
f 99/99/99 94/94/94 101/101/101
f 102/102/102 97/97/97 98/98/98
f 97/97/97 102/102/102 101/101/101
f 98/98/98 103/103/103 102/102/102
f 99/99/99 104/104/104 100/100/100
f 105/105/105 100/100/100 104/104/104
f 101/101/101 106/106/106 99/99/99
f 106/106/106 101/101/101 102/102/102
f 104/104/104 99/99/99 106/106/106
f 107/107/107 102/102/102 103/103/103
f 102/102/102 107/107/107 106/106/106
f 103/103/103 108/108/108 107/107/107
f 104/104/104 109/109/109 105/105/105
f 110/110/110 105/105/105 109/109/109
f 106/106/106 111/111/111 104/104/104
f 111/111/111 106/106/106 107/107/107
f 109/109/109 104/104/104 111/111/111
f 112/112/112 107/107/107 108/108/108
f 107/107/107 112/112/112 111/111/111
f 108/108/108 113/113/113 112/112/112
f 109/109/109 114/114/114 110/110/110
f 115/115/115 110/110/110 114/114/114
f 111/111/111 116/116/116 109/109/109
f 116/116/116 111/111/111 112/112/112
f 114/114/114 109/109/109 116/116/116
f 117/117/117 112/112/112 113/113/113
f 112/112/112 117/117/117 116/116/116
f 113/113/113 118/118/118 117/117/117
f 114/114/114 119/119/119 115/115/115
f 120/120/120 115/115/115 119/119/119
f 116/116/116 121/121/121 114/114/114
f 121/121/121 116/116/116 117/117/117
f 119/119/119 114/114/114 121/121/121
f 122/122/122 117/117/117 118/118/118
f 117/117/117 122/122/122 121/121/121
f 118/118/118 123/123/123 122/122/122
f 119/119/119 124/124/124 120/120/120
f 125/125/125 120/120/120 124/124/124
f 121/121/121 126/126/126 119/119/119
f 126/126/126 121/121/121 122/122/122
f 124/124/124 119/119/119 126/126/126
f 127/127/127 122/122/122 123/123/123
f 122/122/122 127/127/127 126/126/126
f 123/123/123 128/128/128 127/127/127
f 124/124/124 129/129/129 125/125/125
f 130/130/130 125/125/125 129/129/129
f 126/126/126 131/131/131 124/124/124
f 131/131/131 126/126/126 127/127/127
f 129/129/129 124/124/124 131/131/131
f 132/132/132 127/127/127 128/128/128
f 127/127/127 132/132/132 131/131/131
f 128/128/128 133/133/133 132/132/132
f 129/129/129 134/134/134 130/130/130
f 135/135/135 130/130/130 134/134/134
f 131/131/131 136/136/136 129/129/129
f 136/136/136 131/131/131 132/132/132
f 134/134/134 129/129/129 136/136/136
f 137/137/137 132/132/132 133/133/133
f 132/132/132 137/137/137 136/136/136
f 133/133/133 138/138/138 137/137/137
f 134/134/134 139/139/139 135/135/135
f 140/140/140 135/135/135 139/139/139
f 136/136/136 141/141/141 134/134/134
f 141/141/141 136/136/136 137/137/137
f 139/139/139 134/134/134 141/141/141
f 142/142/142 137/137/137 138/138/138
f 137/137/137 142/142/142 141/141/141
f 138/138/138 143/143/143 142/142/142
f 139/139/139 144/144/144 140/140/140
f 145/145/145 140/140/140 144/144/144
f 144/144/144 146/146/146 145/145/145
f 141/141/141 147/147/147 139/139/139
f 147/147/147 141/141/141 142/142/142
f 144/144/144 139/139/139 147/147/147
f 148/148/148 142/142/142 143/143/143
f 142/142/142 148/148/148 147/147/147
f 143/143/143 149/149/149 148/148/148
f 146/146/146 144/144/144 150/150/150
f 147/147/147 150/150/150 144/144/144
f 150/150/150 147/147/147 148/148/148
f 150/150/150 151/151/151 146/146/146
f 152/152/152 148/148/148 149/149/149
f 148/148/148 152/152/152 150/150/150
f 151/151/151 150/150/150 152/152/152
f 149/149/149 153/153/153 152/152/152
f 152/152/152 154/154/154 151/151/151
f 154/154/154 152/152/152 153/153/153
f 153/153/153 155/155/155 154/154/154
